<?xml version="1.0" standalone="no"?>
<!DOCTYPE svg PUBLIC "-//W3C//DTD SVG 20010904//EN"
 "http://www.w3.org/TR/2001/REC-SVG-20010904/DTD/svg10.dtd">
<svg version="1.0" xmlns="http://www.w3.org/2000/svg"
 width="1024.000000pt" height="1024.000000pt" viewBox="0 0 1024.000000 1024.000000"
 preserveAspectRatio="xMidYMid meet">
<metadata>
Created by potrace 1.11, written by Peter Selinger 2001-2013
</metadata>
<g transform="translate(0.000000,1024.000000) scale(0.100000,-0.100000)"
fill="#000000" stroke="none">
<path d="M3500 8075 c-63 -7 -156 -16 -206 -20 -60 -4 -102 -13 -121 -25 -19
-11 -63 -72 -123 -171 -52 -85 -138 -223 -192 -308 -110 -174 -117 -196 -65
-234 17 -14 284 -173 592 -354 814 -479 3620 -2136 3960 -2338 160 -95 375
-227 480 -294 104 -67 200 -121 213 -121 29 0 16 -6 302 155 129 73 405 220
613 327 207 106 378 197 378 203 1 5 -257 155 -572 333 -316 178 -1256 710
-2089 1182 -2699 1528 -2927 1657 -2960 1669 -38 13 -55 12 -210 -4z"/>
<path d="M2703 7233 c-6 -5 -43 -96 -83 -203 -39 -107 -83 -227 -98 -266 -25
-68 -25 -72 -10 -97 10 -14 57 -53 105 -88 48 -35 261 -190 473 -344 212 -155
572 -416 800 -580 973 -699 1277 -922 1852 -1356 150 -114 453 -336 672 -493
314 -225 402 -284 412 -275 8 6 14 16 14 21 0 5 86 227 191 493 135 339 190
490 186 507 -7 28 84 -28 -1107 678 -1026 609 -1290 766 -2560 1523 -443 264
-812 482 -820 484 -8 2 -20 0 -27 -4z"/>
<path d="M3107 5618 c-16 -448 -16 -464 1 -488 39 -52 195 -180 260 -212 64
-32 73 -33 202 -37 202 -5 1060 36 1076 52 5 5 -1502 1147 -1514 1147 -4 0
-15 -208 -25 -462z"/>
<path d="M347 5025 c-12 -31 -8 -1969 4 -2004 6 -17 20 -36 31 -42 10 -6 75
-15 144 -20 138 -11 148 -9 158 42 3 17 6 461 6 986 0 852 -1 959 -15 980 -20
30 -50 42 -140 53 -172 23 -181 24 -188 5z"/>
<path d="M3425 4800 c-104 -16 -462 -74 -795 -129 -333 -56 -853 -141 -1156
-190 -303 -49 -564 -96 -580 -104 -16 -8 -41 -17 -56 -21 -15 -3 -32 -14 -37
-24 -5 -9 -10 -187 -12 -395 -4 -365 -3 -379 15 -393 11 -8 27 -14 35 -14 9 0
143 -13 299 -29 155 -16 292 -27 305 -23 24 6 964 390 1462 597 313 130 870
369 1070 458 l100 45 -4 83 c-2 46 -6 102 -10 124 l-7 40 -219 2 c-197 1 -240
-1 -410 -27z"/>
<path d="M7352 4338 c-5 -7 -71 -134 -145 -283 -75 -148 -162 -313 -193 -365
-60 -98 -83 -149 -84 -187 0 -33 52 -86 112 -112 29 -13 92 -42 139 -64 58
-26 93 -37 108 -32 13 4 46 51 92 133 40 70 146 254 236 410 90 156 161 287
158 291 -8 14 -381 221 -397 221 -9 0 -20 -6 -26 -12z"/>
</g>
</svg>
